<?xml version="1.0" encoding="UTF-8" standalone="no"?>
<!DOCTYPE svg PUBLIC "-//W3C//DTD SVG 1.1//EN"
 "http://www.w3.org/Graphics/SVG/1.1/DTD/svg11.dtd">
<!-- Generated by graphviz version 2.43.0 (0)
 -->
<!-- Title: %3 Pages: 1 -->
<svg width="1008pt" height="332pt"
 viewBox="0.00 0.00 1007.71 332.00" xmlns="http://www.w3.org/2000/svg" xmlns:xlink="http://www.w3.org/1999/xlink">
<g id="graph0" class="graph" transform="scale(1 1) rotate(0) translate(4 328)">
<title>%3</title>
<polygon fill="white" stroke="transparent" points="-4,4 -4,-328 1003.71,-328 1003.71,4 -4,4"/>
<!-- [root] docker_container.mi&#45;contenedor (expand) -->
<g id="node1" class="node">
<title>[root] docker_container.mi&#45;contenedor (expand)</title>
<polygon fill="none" stroke="black" points="548.73,-180 303.73,-180 303.73,-144 548.73,-144 548.73,-180"/>
<text text-anchor="middle" x="426.23" y="-158.3" font-family="Times,serif" font-size="14.00">docker_container.mi&#45;contenedor</text>
</g>
<!-- [root] docker_image.mi&#45;imagen (expand) -->
<g id="node2" class="node">
<title>[root] docker_image.mi&#45;imagen (expand)</title>
<polygon fill="none" stroke="black" points="523.23,-108 329.23,-108 329.23,-72 523.23,-72 523.23,-108"/>
<text text-anchor="middle" x="426.23" y="-86.3" font-family="Times,serif" font-size="14.00">docker_image.mi&#45;imagen</text>
</g>
<!-- [root] docker_container.mi&#45;contenedor (expand)&#45;&gt;[root] docker_image.mi&#45;imagen (expand) -->
<g id="edge1" class="edge">
<title>[root] docker_container.mi&#45;contenedor (expand)&#45;&gt;[root] docker_image.mi&#45;imagen (expand)</title>
<path fill="none" stroke="black" d="M426.23,-143.7C426.23,-135.98 426.23,-126.71 426.23,-118.11"/>
<polygon fill="black" stroke="black" points="429.73,-118.1 426.23,-108.1 422.73,-118.1 429.73,-118.1"/>
</g>
<!-- [root] provider[&quot;registry.terraform.io/kreuzwerker/docker&quot;] -->
<g id="node3" class="node">
<title>[root] provider[&quot;registry.terraform.io/kreuzwerker/docker&quot;]</title>
<polygon fill="none" stroke="black" points="426.23,-36 63.1,-18 426.23,0 789.37,-18 426.23,-36"/>
<text text-anchor="middle" x="426.23" y="-14.3" font-family="Times,serif" font-size="14.00">provider[&quot;registry.terraform.io/kreuzwerker/docker&quot;]</text>
</g>
<!-- [root] docker_image.mi&#45;imagen (expand)&#45;&gt;[root] provider[&quot;registry.terraform.io/kreuzwerker/docker&quot;] -->
<g id="edge2" class="edge">
<title>[root] docker_image.mi&#45;imagen (expand)&#45;&gt;[root] provider[&quot;registry.terraform.io/kreuzwerker/docker&quot;]</title>
<path fill="none" stroke="black" d="M426.23,-71.7C426.23,-63.98 426.23,-54.71 426.23,-46.11"/>
<polygon fill="black" stroke="black" points="429.73,-46.1 426.23,-36.1 422.73,-46.1 429.73,-46.1"/>
</g>
<!-- [root] output.direccion_ip (expand) -->
<g id="node4" class="node">
<title>[root] output.direccion_ip (expand)</title>
<ellipse fill="none" stroke="black" cx="172.23" cy="-234" rx="172.47" ry="18"/>
<text text-anchor="middle" x="172.23" y="-230.3" font-family="Times,serif" font-size="14.00">[root] output.direccion_ip (expand)</text>
</g>
<!-- [root] output.direccion_ip (expand)&#45;&gt;[root] docker_container.mi&#45;contenedor (expand) -->
<g id="edge3" class="edge">
<title>[root] output.direccion_ip (expand)&#45;&gt;[root] docker_container.mi&#45;contenedor (expand)</title>
<path fill="none" stroke="black" d="M230.19,-217.03C267.17,-206.84 315.38,-193.55 354.74,-182.7"/>
<polygon fill="black" stroke="black" points="355.83,-186.03 364.54,-180 353.97,-179.29 355.83,-186.03"/>
</g>
<!-- [root] provider[&quot;registry.terraform.io/kreuzwerker/docker&quot;] (close) -->
<g id="node5" class="node">
<title>[root] provider[&quot;registry.terraform.io/kreuzwerker/docker&quot;] (close)</title>
<ellipse fill="none" stroke="black" cx="681.23" cy="-234" rx="318.44" ry="18"/>
<text text-anchor="middle" x="681.23" y="-230.3" font-family="Times,serif" font-size="14.00">[root] provider[&quot;registry.terraform.io/kreuzwerker/docker&quot;] (close)</text>
</g>
<!-- [root] provider[&quot;registry.terraform.io/kreuzwerker/docker&quot;] (close)&#45;&gt;[root] docker_container.mi&#45;contenedor (expand) -->
<g id="edge4" class="edge">
<title>[root] provider[&quot;registry.terraform.io/kreuzwerker/docker&quot;] (close)&#45;&gt;[root] docker_container.mi&#45;contenedor (expand)</title>
<path fill="none" stroke="black" d="M620.48,-216.32C583.83,-206.26 536.94,-193.39 498.41,-182.81"/>
<polygon fill="black" stroke="black" points="498.87,-179.31 488.3,-180.04 497.01,-186.06 498.87,-179.31"/>
</g>
<!-- [root] root -->
<g id="node6" class="node">
<title>[root] root</title>
<ellipse fill="none" stroke="black" cx="426.23" cy="-306" rx="58.49" ry="18"/>
<text text-anchor="middle" x="426.23" y="-302.3" font-family="Times,serif" font-size="14.00">[root] root</text>
</g>
<!-- [root] root&#45;&gt;[root] output.direccion_ip (expand) -->
<g id="edge5" class="edge">
<title>[root] root&#45;&gt;[root] output.direccion_ip (expand)</title>
<path fill="none" stroke="black" d="M384.29,-293.44C345.17,-282.66 286.13,-266.39 240.27,-253.75"/>
<polygon fill="black" stroke="black" points="240.97,-250.31 230.4,-251.03 239.11,-257.06 240.97,-250.31"/>
</g>
<!-- [root] root&#45;&gt;[root] provider[&quot;registry.terraform.io/kreuzwerker/docker&quot;] (close) -->
<g id="edge6" class="edge">
<title>[root] root&#45;&gt;[root] provider[&quot;registry.terraform.io/kreuzwerker/docker&quot;] (close)</title>
<path fill="none" stroke="black" d="M468.34,-293.44C506.96,-282.84 564.91,-266.93 610.61,-254.39"/>
<polygon fill="black" stroke="black" points="611.74,-257.71 620.45,-251.68 609.88,-250.96 611.74,-257.71"/>
</g>
</g>
</svg>
