<?xml version="1.0" encoding="UTF-8" standalone="no"?>
<!DOCTYPE svg PUBLIC "-//W3C//DTD SVG 1.1//EN"
 "http://www.w3.org/Graphics/SVG/1.1/DTD/svg11.dtd">
<!-- Generated by graphviz version 2.43.0 (0)
 -->
<!-- Title: %3 Pages: 1 -->
<svg width="5162pt" height="764pt"
 viewBox="0.00 0.00 5162.37 764.00" xmlns="http://www.w3.org/2000/svg" xmlns:xlink="http://www.w3.org/1999/xlink">
<g id="graph0" class="graph" transform="scale(1 1) rotate(0) translate(4 760)">
<title>%3</title>
<polygon fill="white" stroke="transparent" points="-4,4 -4,-760 5158.37,-760 5158.37,4 -4,4"/>
<!-- [root] aws_instance.web (expand) -->
<g id="node1" class="node">
<title>[root] aws_instance.web (expand)</title>
<polygon fill="none" stroke="black" points="725.5,-612 580.5,-612 580.5,-576 725.5,-576 725.5,-612"/>
<text text-anchor="middle" x="653" y="-590.3" font-family="Times,serif" font-size="14.00">aws_instance.web</text>
</g>
<!-- [root] aws_key_pair.clave_en_aws (expand) -->
<g id="node2" class="node">
<title>[root] aws_key_pair.clave_en_aws (expand)</title>
<polygon fill="none" stroke="black" points="502.5,-540 293.5,-540 293.5,-504 502.5,-504 502.5,-540"/>
<text text-anchor="middle" x="398" y="-518.3" font-family="Times,serif" font-size="14.00">aws_key_pair.clave_en_aws</text>
</g>
<!-- [root] aws_instance.web (expand)&#45;&gt;[root] aws_key_pair.clave_en_aws (expand) -->
<g id="edge1" class="edge">
<title>[root] aws_instance.web (expand)&#45;&gt;[root] aws_key_pair.clave_en_aws (expand)</title>
<path fill="none" stroke="black" d="M590.95,-575.97C554.54,-565.97 508.37,-553.3 470.32,-542.85"/>
<polygon fill="black" stroke="black" points="470.9,-539.38 460.33,-540.11 469.05,-546.13 470.9,-539.38"/>
</g>
<!-- [root] data.aws_ami.imagen_del_servidor (expand) -->
<g id="node3" class="node">
<title>[root] data.aws_ami.imagen_del_servidor (expand)</title>
<polygon fill="none" stroke="black" points="785.5,-540 520.5,-540 520.5,-504 785.5,-504 785.5,-540"/>
<text text-anchor="middle" x="653" y="-518.3" font-family="Times,serif" font-size="14.00">data.aws_ami.imagen_del_servidor</text>
</g>
<!-- [root] aws_instance.web (expand)&#45;&gt;[root] data.aws_ami.imagen_del_servidor (expand) -->
<g id="edge2" class="edge">
<title>[root] aws_instance.web (expand)&#45;&gt;[root] data.aws_ami.imagen_del_servidor (expand)</title>
<path fill="none" stroke="black" d="M653,-575.7C653,-567.98 653,-558.71 653,-550.11"/>
<polygon fill="black" stroke="black" points="656.5,-550.1 653,-540.1 649.5,-550.1 656.5,-550.1"/>
</g>
<!-- [root] provider[&quot;registry.terraform.io/hashicorp/aws&quot;] -->
<g id="node5" class="node">
<title>[root] provider[&quot;registry.terraform.io/hashicorp/aws&quot;]</title>
<polygon fill="none" stroke="black" points="525,-468 199.74,-450 525,-432 850.26,-450 525,-468"/>
<text text-anchor="middle" x="525" y="-446.3" font-family="Times,serif" font-size="14.00">provider[&quot;registry.terraform.io/hashicorp/aws&quot;]</text>
</g>
<!-- [root] aws_key_pair.clave_en_aws (expand)&#45;&gt;[root] provider[&quot;registry.terraform.io/hashicorp/aws&quot;] -->
<g id="edge3" class="edge">
<title>[root] aws_key_pair.clave_en_aws (expand)&#45;&gt;[root] provider[&quot;registry.terraform.io/hashicorp/aws&quot;]</title>
<path fill="none" stroke="black" d="M429.07,-503.88C446.86,-494.07 469.31,-481.7 488.01,-471.39"/>
<polygon fill="black" stroke="black" points="489.78,-474.41 496.85,-466.51 486.41,-468.28 489.78,-474.41"/>
</g>
<!-- [root] var.nombre_despliegue -->
<g id="node7" class="node">
<title>[root] var.nombre_despliegue</title>
<polygon fill="none" stroke="black" points="176,-468 0,-468 0,-432 182,-432 182,-462 176,-468"/>
<polyline fill="none" stroke="black" points="176,-468 176,-462 "/>
<polyline fill="none" stroke="black" points="182,-462 176,-462 "/>
<text text-anchor="middle" x="91" y="-446.3" font-family="Times,serif" font-size="14.00">var.nombre_despliegue</text>
</g>
<!-- [root] aws_key_pair.clave_en_aws (expand)&#45;&gt;[root] var.nombre_despliegue -->
<g id="edge4" class="edge">
<title>[root] aws_key_pair.clave_en_aws (expand)&#45;&gt;[root] var.nombre_despliegue</title>
<path fill="none" stroke="black" d="M323.29,-503.97C278.73,-493.8 222.01,-480.87 175.78,-470.33"/>
<polygon fill="black" stroke="black" points="176.3,-466.86 165.78,-468.05 174.75,-473.69 176.3,-466.86"/>
</g>
<!-- [root] data.aws_ami.imagen_del_servidor (expand)&#45;&gt;[root] provider[&quot;registry.terraform.io/hashicorp/aws&quot;] -->
<g id="edge5" class="edge">
<title>[root] data.aws_ami.imagen_del_servidor (expand)&#45;&gt;[root] provider[&quot;registry.terraform.io/hashicorp/aws&quot;]</title>
<path fill="none" stroke="black" d="M621.69,-503.88C603.75,-494.07 581.13,-481.7 562.28,-471.39"/>
<polygon fill="black" stroke="black" points="563.82,-468.24 553.37,-466.51 560.46,-474.38 563.82,-468.24"/>
</g>
<!-- [root] module.claves.tls_private_key.claves (expand) -->
<g id="node4" class="node">
<title>[root] module.claves.tls_private_key.claves (expand)</title>
<polygon fill="none" stroke="black" points="2043,-540 1767,-540 1767,-504 2043,-504 2043,-540"/>
<text text-anchor="middle" x="1905" y="-518.3" font-family="Times,serif" font-size="14.00">module.claves.tls_private_key.claves</text>
</g>
<!-- [root] provider[&quot;registry.terraform.io/hashicorp/tls&quot;] -->
<g id="node6" class="node">
<title>[root] provider[&quot;registry.terraform.io/hashicorp/tls&quot;]</title>
<polygon fill="none" stroke="black" points="1724,-468 1407.62,-450 1724,-432 2040.38,-450 1724,-468"/>
<text text-anchor="middle" x="1724" y="-446.3" font-family="Times,serif" font-size="14.00">provider[&quot;registry.terraform.io/hashicorp/tls&quot;]</text>
</g>
<!-- [root] module.claves.tls_private_key.claves (expand)&#45;&gt;[root] provider[&quot;registry.terraform.io/hashicorp/tls&quot;] -->
<g id="edge34" class="edge">
<title>[root] module.claves.tls_private_key.claves (expand)&#45;&gt;[root] provider[&quot;registry.terraform.io/hashicorp/tls&quot;]</title>
<path fill="none" stroke="black" d="M1860.72,-503.88C1833.85,-493.48 1799.55,-480.22 1772.03,-469.58"/>
<polygon fill="black" stroke="black" points="1773.19,-466.27 1762.6,-465.93 1770.67,-472.8 1773.19,-466.27"/>
</g>
<!-- [root] module.claves.local.nombre_algoritmo (expand) -->
<g id="node25" class="node">
<title>[root] module.claves.local.nombre_algoritmo (expand)</title>
<ellipse fill="none" stroke="black" cx="1129" cy="-450" rx="260.75" ry="18"/>
<text text-anchor="middle" x="1129" y="-446.3" font-family="Times,serif" font-size="14.00">[root] module.claves.local.nombre_algoritmo (expand)</text>
</g>
<!-- [root] module.claves.tls_private_key.claves (expand)&#45;&gt;[root] module.claves.local.nombre_algoritmo (expand) -->
<g id="edge32" class="edge">
<title>[root] module.claves.tls_private_key.claves (expand)&#45;&gt;[root] module.claves.local.nombre_algoritmo (expand)</title>
<path fill="none" stroke="black" d="M1766.71,-508.53C1633.31,-496.49 1431.43,-478.28 1290.67,-465.58"/>
<polygon fill="black" stroke="black" points="1290.91,-462.09 1280.64,-464.68 1290.28,-469.06 1290.91,-462.09"/>
</g>
<!-- [root] module.claves.local.se_generan_claves (expand) -->
<g id="node27" class="node">
<title>[root] module.claves.local.se_generan_claves (expand)</title>
<ellipse fill="none" stroke="black" cx="2320" cy="-450" rx="261.85" ry="18"/>
<text text-anchor="middle" x="2320" y="-446.3" font-family="Times,serif" font-size="14.00">[root] module.claves.local.se_generan_claves (expand)</text>
</g>
<!-- [root] module.claves.tls_private_key.claves (expand)&#45;&gt;[root] module.claves.local.se_generan_claves (expand) -->
<g id="edge33" class="edge">
<title>[root] module.claves.tls_private_key.claves (expand)&#45;&gt;[root] module.claves.local.se_generan_claves (expand)</title>
<path fill="none" stroke="black" d="M2005.99,-503.97C2069.64,-493.23 2151.64,-479.4 2215.88,-468.56"/>
<polygon fill="black" stroke="black" points="2216.76,-471.96 2226.04,-466.85 2215.59,-465.06 2216.76,-471.96"/>
</g>
<!-- [root] module.claves (close) -->
<g id="node8" class="node">
<title>[root] module.claves (close)</title>
<ellipse fill="none" stroke="black" cx="2431" cy="-666" rx="138.38" ry="18"/>
<text text-anchor="middle" x="2431" y="-662.3" font-family="Times,serif" font-size="14.00">[root] module.claves (close)</text>
</g>
<!-- [root] module.claves.output.claves (expand) -->
<g id="node9" class="node">
<title>[root] module.claves.output.claves (expand)</title>
<ellipse fill="none" stroke="black" cx="2814" cy="-594" rx="213.66" ry="18"/>
<text text-anchor="middle" x="2814" y="-590.3" font-family="Times,serif" font-size="14.00">[root] module.claves.output.claves (expand)</text>
</g>
<!-- [root] module.claves (close)&#45;&gt;[root] module.claves.output.claves (expand) -->
<g id="edge6" class="edge">
<title>[root] module.claves (close)&#45;&gt;[root] module.claves.output.claves (expand)</title>
<path fill="none" stroke="black" d="M2507.59,-651C2568.42,-639.88 2653.82,-624.28 2719.01,-612.36"/>
<polygon fill="black" stroke="black" points="2719.68,-615.8 2728.88,-610.56 2718.42,-608.91 2719.68,-615.8"/>
</g>
<!-- [root] module.claves.output.claves (expand)&#45;&gt;[root] module.claves.tls_private_key.claves (expand) -->
<g id="edge31" class="edge">
<title>[root] module.claves.output.claves (expand)&#45;&gt;[root] module.claves.tls_private_key.claves (expand)</title>
<path fill="none" stroke="black" d="M2662.11,-581.3C2492.89,-568.27 2221.11,-547.34 2053.34,-534.42"/>
<polygon fill="black" stroke="black" points="2053.43,-530.92 2043.19,-533.64 2052.89,-537.9 2053.43,-530.92"/>
</g>
<!-- [root] module.claves.local.contenido_del_fichero_clave_privada_openssh (expand) -->
<g id="node10" class="node">
<title>[root] module.claves.local.contenido_del_fichero_clave_privada_openssh (expand)</title>
<ellipse fill="none" stroke="black" cx="3021" cy="-378" rx="386.13" ry="18"/>
<text text-anchor="middle" x="3021" y="-374.3" font-family="Times,serif" font-size="14.00">[root] module.claves.local.contenido_del_fichero_clave_privada_openssh (expand)</text>
</g>
<!-- [root] module.claves.output.claves (expand)&#45;&gt;[root] module.claves.local.contenido_del_fichero_clave_privada_openssh (expand) -->
<g id="edge27" class="edge">
<title>[root] module.claves.output.claves (expand)&#45;&gt;[root] module.claves.local.contenido_del_fichero_clave_privada_openssh (expand)</title>
<path fill="none" stroke="black" d="M2924.43,-578.48C2948.2,-570.55 2971.2,-558.45 2988,-540 3021.6,-503.1 3024.69,-441.47 3023.28,-406.12"/>
<polygon fill="black" stroke="black" points="3026.77,-405.85 3022.72,-396.05 3019.78,-406.23 3026.77,-405.85"/>
</g>
<!-- [root] module.claves.local.contenido_del_fichero_clave_privada_pem (expand) -->
<g id="node12" class="node">
<title>[root] module.claves.local.contenido_del_fichero_clave_privada_pem (expand)</title>
<ellipse fill="none" stroke="black" cx="4410" cy="-378" rx="367.73" ry="18"/>
<text text-anchor="middle" x="4410" y="-374.3" font-family="Times,serif" font-size="14.00">[root] module.claves.local.contenido_del_fichero_clave_privada_pem (expand)</text>
</g>
<!-- [root] module.claves.output.claves (expand)&#45;&gt;[root] module.claves.local.contenido_del_fichero_clave_privada_pem (expand) -->
<g id="edge28" class="edge">
<title>[root] module.claves.output.claves (expand)&#45;&gt;[root] module.claves.local.contenido_del_fichero_clave_privada_pem (expand)</title>
<path fill="none" stroke="black" d="M2922.44,-578.46C3206.78,-540.33 3973.01,-437.59 4280.1,-396.42"/>
<polygon fill="black" stroke="black" points="4280.94,-399.84 4290.38,-395.04 4280.01,-392.9 4280.94,-399.84"/>
</g>
<!-- [root] module.claves.local.contenido_del_fichero_clave_publica_openssh (expand) -->
<g id="node14" class="node">
<title>[root] module.claves.local.contenido_del_fichero_clave_publica_openssh (expand)</title>
<ellipse fill="none" stroke="black" cx="4473" cy="-522" rx="384.53" ry="18"/>
<text text-anchor="middle" x="4473" y="-518.3" font-family="Times,serif" font-size="14.00">[root] module.claves.local.contenido_del_fichero_clave_publica_openssh (expand)</text>
</g>
<!-- [root] module.claves.output.claves (expand)&#45;&gt;[root] module.claves.local.contenido_del_fichero_clave_publica_openssh (expand) -->
<g id="edge29" class="edge">
<title>[root] module.claves.output.claves (expand)&#45;&gt;[root] module.claves.local.contenido_del_fichero_clave_publica_openssh (expand)</title>
<path fill="none" stroke="black" d="M3000.28,-585.14C3289.36,-572.94 3848.01,-549.37 4188.01,-535.02"/>
<polygon fill="black" stroke="black" points="4188.16,-538.52 4198.01,-534.6 4187.87,-531.53 4188.16,-538.52"/>
</g>
<!-- [root] module.claves.local.contenido_del_fichero_clave_publica_pem (expand) -->
<g id="node16" class="node">
<title>[root] module.claves.local.contenido_del_fichero_clave_publica_pem (expand)</title>
<ellipse fill="none" stroke="black" cx="2612" cy="-522" rx="366.63" ry="18"/>
<text text-anchor="middle" x="2612" y="-518.3" font-family="Times,serif" font-size="14.00">[root] module.claves.local.contenido_del_fichero_clave_publica_pem (expand)</text>
</g>
<!-- [root] module.claves.output.claves (expand)&#45;&gt;[root] module.claves.local.contenido_del_fichero_clave_publica_pem (expand) -->
<g id="edge30" class="edge">
<title>[root] module.claves.output.claves (expand)&#45;&gt;[root] module.claves.local.contenido_del_fichero_clave_publica_pem (expand)</title>
<path fill="none" stroke="black" d="M2766.13,-576.41C2737.49,-566.49 2700.89,-553.81 2670.55,-543.29"/>
<polygon fill="black" stroke="black" points="2671.53,-539.92 2660.93,-539.96 2669.23,-546.54 2671.53,-539.92"/>
</g>
<!-- [root] module.claves.local.existe_el_fichero_clave_privada_openssh (expand) -->
<g id="node11" class="node">
<title>[root] module.claves.local.existe_el_fichero_clave_privada_openssh (expand)</title>
<ellipse fill="none" stroke="black" cx="3344" cy="-306" rx="362.84" ry="18"/>
<text text-anchor="middle" x="3344" y="-302.3" font-family="Times,serif" font-size="14.00">[root] module.claves.local.existe_el_fichero_clave_privada_openssh (expand)</text>
</g>
<!-- [root] module.claves.local.contenido_del_fichero_clave_privada_openssh (expand)&#45;&gt;[root] module.claves.local.existe_el_fichero_clave_privada_openssh (expand) -->
<g id="edge7" class="edge">
<title>[root] module.claves.local.contenido_del_fichero_clave_privada_openssh (expand)&#45;&gt;[root] module.claves.local.existe_el_fichero_clave_privada_openssh (expand)</title>
<path fill="none" stroke="black" d="M3097.96,-360.32C3145.88,-349.94 3207.62,-336.56 3257.27,-325.8"/>
<polygon fill="black" stroke="black" points="3258.32,-329.15 3267.35,-323.61 3256.84,-322.31 3258.32,-329.15"/>
</g>
<!-- [root] module.claves.local.ruta_del_fichero_clave_privada_openssh (expand) -->
<g id="node20" class="node">
<title>[root] module.claves.local.ruta_del_fichero_clave_privada_openssh (expand)</title>
<ellipse fill="none" stroke="black" cx="3344" cy="-234" rx="360.14" ry="18"/>
<text text-anchor="middle" x="3344" y="-230.3" font-family="Times,serif" font-size="14.00">[root] module.claves.local.ruta_del_fichero_clave_privada_openssh (expand)</text>
</g>
<!-- [root] module.claves.local.existe_el_fichero_clave_privada_openssh (expand)&#45;&gt;[root] module.claves.local.ruta_del_fichero_clave_privada_openssh (expand) -->
<g id="edge12" class="edge">
<title>[root] module.claves.local.existe_el_fichero_clave_privada_openssh (expand)&#45;&gt;[root] module.claves.local.ruta_del_fichero_clave_privada_openssh (expand)</title>
<path fill="none" stroke="black" d="M3344,-287.7C3344,-279.98 3344,-270.71 3344,-262.11"/>
<polygon fill="black" stroke="black" points="3347.5,-262.1 3344,-252.1 3340.5,-262.1 3347.5,-262.1"/>
</g>
<!-- [root] module.claves.local.existe_el_fichero_clave_privada_pem (expand) -->
<g id="node13" class="node">
<title>[root] module.claves.local.existe_el_fichero_clave_privada_pem (expand)</title>
<ellipse fill="none" stroke="black" cx="4069" cy="-306" rx="344.44" ry="18"/>
<text text-anchor="middle" x="4069" y="-302.3" font-family="Times,serif" font-size="14.00">[root] module.claves.local.existe_el_fichero_clave_privada_pem (expand)</text>
</g>
<!-- [root] module.claves.local.contenido_del_fichero_clave_privada_pem (expand)&#45;&gt;[root] module.claves.local.existe_el_fichero_clave_privada_pem (expand) -->
<g id="edge8" class="edge">
<title>[root] module.claves.local.contenido_del_fichero_clave_privada_pem (expand)&#45;&gt;[root] module.claves.local.existe_el_fichero_clave_privada_pem (expand)</title>
<path fill="none" stroke="black" d="M4329.19,-360.41C4278.21,-349.95 4212.29,-336.41 4159.55,-325.59"/>
<polygon fill="black" stroke="black" points="4160.03,-322.11 4149.53,-323.53 4158.62,-328.97 4160.03,-322.11"/>
</g>
<!-- [root] module.claves.local.ruta_del_fichero_clave_privada_pem (expand) -->
<g id="node21" class="node">
<title>[root] module.claves.local.ruta_del_fichero_clave_privada_pem (expand)</title>
<ellipse fill="none" stroke="black" cx="4067" cy="-234" rx="342.54" ry="18"/>
<text text-anchor="middle" x="4067" y="-230.3" font-family="Times,serif" font-size="14.00">[root] module.claves.local.ruta_del_fichero_clave_privada_pem (expand)</text>
</g>
<!-- [root] module.claves.local.existe_el_fichero_clave_privada_pem (expand)&#45;&gt;[root] module.claves.local.ruta_del_fichero_clave_privada_pem (expand) -->
<g id="edge13" class="edge">
<title>[root] module.claves.local.existe_el_fichero_clave_privada_pem (expand)&#45;&gt;[root] module.claves.local.ruta_del_fichero_clave_privada_pem (expand)</title>
<path fill="none" stroke="black" d="M4068.51,-287.7C4068.29,-279.98 4068.02,-270.71 4067.77,-262.11"/>
<polygon fill="black" stroke="black" points="4071.27,-262 4067.49,-252.1 4064.28,-262.2 4071.27,-262"/>
</g>
<!-- [root] module.claves.local.existe_el_fichero_clave_publica_openssh (expand) -->
<g id="node15" class="node">
<title>[root] module.claves.local.existe_el_fichero_clave_publica_openssh (expand)</title>
<ellipse fill="none" stroke="black" cx="4793" cy="-306" rx="361.24" ry="18"/>
<text text-anchor="middle" x="4793" y="-302.3" font-family="Times,serif" font-size="14.00">[root] module.claves.local.existe_el_fichero_clave_publica_openssh (expand)</text>
</g>
<!-- [root] module.claves.local.contenido_del_fichero_clave_publica_openssh (expand)&#45;&gt;[root] module.claves.local.existe_el_fichero_clave_publica_openssh (expand) -->
<g id="edge9" class="edge">
<title>[root] module.claves.local.contenido_del_fichero_clave_publica_openssh (expand)&#45;&gt;[root] module.claves.local.existe_el_fichero_clave_publica_openssh (expand)</title>
<path fill="none" stroke="black" d="M4593.29,-504.86C4661.51,-489.04 4742,-457.77 4787,-396 4799.79,-378.44 4800.37,-353.41 4798.27,-334.36"/>
<polygon fill="black" stroke="black" points="4801.7,-333.63 4796.85,-324.21 4794.77,-334.6 4801.7,-333.63"/>
</g>
<!-- [root] module.claves.local.ruta_del_fichero_clave_publica_openssh (expand) -->
<g id="node22" class="node">
<title>[root] module.claves.local.ruta_del_fichero_clave_publica_openssh (expand)</title>
<ellipse fill="none" stroke="black" cx="4789" cy="-234" rx="358.54" ry="18"/>
<text text-anchor="middle" x="4789" y="-230.3" font-family="Times,serif" font-size="14.00">[root] module.claves.local.ruta_del_fichero_clave_publica_openssh (expand)</text>
</g>
<!-- [root] module.claves.local.existe_el_fichero_clave_publica_openssh (expand)&#45;&gt;[root] module.claves.local.ruta_del_fichero_clave_publica_openssh (expand) -->
<g id="edge14" class="edge">
<title>[root] module.claves.local.existe_el_fichero_clave_publica_openssh (expand)&#45;&gt;[root] module.claves.local.ruta_del_fichero_clave_publica_openssh (expand)</title>
<path fill="none" stroke="black" d="M4792.01,-287.7C4791.57,-279.98 4791.04,-270.71 4790.55,-262.11"/>
<polygon fill="black" stroke="black" points="4794.04,-261.89 4789.98,-252.1 4787.05,-262.29 4794.04,-261.89"/>
</g>
<!-- [root] module.claves.local.existe_el_fichero_clave_publica_pem (expand) -->
<g id="node17" class="node">
<title>[root] module.claves.local.existe_el_fichero_clave_publica_pem (expand)</title>
<ellipse fill="none" stroke="black" cx="2620" cy="-306" rx="343.34" ry="18"/>
<text text-anchor="middle" x="2620" y="-302.3" font-family="Times,serif" font-size="14.00">[root] module.claves.local.existe_el_fichero_clave_publica_pem (expand)</text>
</g>
<!-- [root] module.claves.local.contenido_del_fichero_clave_publica_pem (expand)&#45;&gt;[root] module.claves.local.existe_el_fichero_clave_publica_pem (expand) -->
<g id="edge10" class="edge">
<title>[root] module.claves.local.contenido_del_fichero_clave_publica_pem (expand)&#45;&gt;[root] module.claves.local.existe_el_fichero_clave_publica_pem (expand)</title>
<path fill="none" stroke="black" d="M2612.64,-503.85C2614.02,-466.83 2617.3,-379.18 2618.98,-334.39"/>
<polygon fill="black" stroke="black" points="2622.48,-334.36 2619.36,-324.23 2615.48,-334.09 2622.48,-334.36"/>
</g>
<!-- [root] module.claves.local.ruta_del_fichero_clave_publica_pem (expand) -->
<g id="node23" class="node">
<title>[root] module.claves.local.ruta_del_fichero_clave_publica_pem (expand)</title>
<ellipse fill="none" stroke="black" cx="2622" cy="-234" rx="340.64" ry="18"/>
<text text-anchor="middle" x="2622" y="-230.3" font-family="Times,serif" font-size="14.00">[root] module.claves.local.ruta_del_fichero_clave_publica_pem (expand)</text>
</g>
<!-- [root] module.claves.local.existe_el_fichero_clave_publica_pem (expand)&#45;&gt;[root] module.claves.local.ruta_del_fichero_clave_publica_pem (expand) -->
<g id="edge15" class="edge">
<title>[root] module.claves.local.existe_el_fichero_clave_publica_pem (expand)&#45;&gt;[root] module.claves.local.ruta_del_fichero_clave_publica_pem (expand)</title>
<path fill="none" stroke="black" d="M2620.49,-287.7C2620.71,-279.98 2620.98,-270.71 2621.23,-262.11"/>
<polygon fill="black" stroke="black" points="2624.72,-262.2 2621.51,-252.1 2617.73,-262 2624.72,-262.2"/>
</g>
<!-- [root] module.claves.local.directorio_ficheros_claves_acabando_en_barra (expand) -->
<g id="node18" class="node">
<title>[root] module.claves.local.directorio_ficheros_claves_acabando_en_barra (expand)</title>
<ellipse fill="none" stroke="black" cx="3344" cy="-162" rx="389.13" ry="18"/>
<text text-anchor="middle" x="3344" y="-158.3" font-family="Times,serif" font-size="14.00">[root] module.claves.local.directorio_ficheros_claves_acabando_en_barra (expand)</text>
</g>
<!-- [root] module.claves.var.directorio_ficheros_claves (expand) -->
<g id="node19" class="node">
<title>[root] module.claves.var.directorio_ficheros_claves (expand)</title>
<ellipse fill="none" stroke="black" cx="3081" cy="-90" rx="287.85" ry="18"/>
<text text-anchor="middle" x="3081" y="-86.3" font-family="Times,serif" font-size="14.00">[root] module.claves.var.directorio_ficheros_claves (expand)</text>
</g>
<!-- [root] module.claves.local.directorio_ficheros_claves_acabando_en_barra (expand)&#45;&gt;[root] module.claves.var.directorio_ficheros_claves (expand) -->
<g id="edge11" class="edge">
<title>[root] module.claves.local.directorio_ficheros_claves_acabando_en_barra (expand)&#45;&gt;[root] module.claves.var.directorio_ficheros_claves (expand)</title>
<path fill="none" stroke="black" d="M3281,-144.23C3242.54,-133.99 3193.22,-120.87 3153.18,-110.21"/>
<polygon fill="black" stroke="black" points="3154.04,-106.82 3143.48,-107.63 3152.24,-113.58 3154.04,-106.82"/>
</g>
<!-- [root] module.claves (expand) -->
<g id="node29" class="node">
<title>[root] module.claves (expand)</title>
<ellipse fill="none" stroke="black" cx="2249" cy="-18" rx="148.67" ry="18"/>
<text text-anchor="middle" x="2249" y="-14.3" font-family="Times,serif" font-size="14.00">[root] module.claves (expand)</text>
</g>
<!-- [root] module.claves.var.directorio_ficheros_claves (expand)&#45;&gt;[root] module.claves (expand) -->
<g id="edge36" class="edge">
<title>[root] module.claves.var.directorio_ficheros_claves (expand)&#45;&gt;[root] module.claves (expand)</title>
<path fill="none" stroke="black" d="M2916.62,-75.17C2758.46,-61.86 2522.56,-42.02 2377.64,-29.82"/>
<polygon fill="black" stroke="black" points="2377.62,-26.31 2367.36,-28.96 2377.03,-33.28 2377.62,-26.31"/>
</g>
<!-- [root] module.claves.local.ruta_del_fichero_clave_privada_openssh (expand)&#45;&gt;[root] module.claves.local.directorio_ficheros_claves_acabando_en_barra (expand) -->
<g id="edge21" class="edge">
<title>[root] module.claves.local.ruta_del_fichero_clave_privada_openssh (expand)&#45;&gt;[root] module.claves.local.directorio_ficheros_claves_acabando_en_barra (expand)</title>
<path fill="none" stroke="black" d="M3344,-215.7C3344,-207.98 3344,-198.71 3344,-190.11"/>
<polygon fill="black" stroke="black" points="3347.5,-190.1 3344,-180.1 3340.5,-190.1 3347.5,-190.1"/>
</g>
<!-- [root] module.claves.local.ruta_del_fichero_clave_privada_pem (expand)&#45;&gt;[root] module.claves.local.directorio_ficheros_claves_acabando_en_barra (expand) -->
<g id="edge22" class="edge">
<title>[root] module.claves.local.ruta_del_fichero_clave_privada_pem (expand)&#45;&gt;[root] module.claves.local.directorio_ficheros_claves_acabando_en_barra (expand)</title>
<path fill="none" stroke="black" d="M3911.45,-217.94C3794.29,-206.6 3633.8,-191.06 3513.4,-179.4"/>
<polygon fill="black" stroke="black" points="3513.63,-175.91 3503.34,-178.43 3512.96,-182.87 3513.63,-175.91"/>
</g>
<!-- [root] module.claves.local.ruta_del_fichero_clave_publica_openssh (expand)&#45;&gt;[root] module.claves.local.directorio_ficheros_claves_acabando_en_barra (expand) -->
<g id="edge23" class="edge">
<title>[root] module.claves.local.ruta_del_fichero_clave_publica_openssh (expand)&#45;&gt;[root] module.claves.local.directorio_ficheros_claves_acabando_en_barra (expand)</title>
<path fill="none" stroke="black" d="M4541.01,-220.99C4282.35,-208.46 3878.23,-188.88 3612.27,-176"/>
<polygon fill="black" stroke="black" points="3612.24,-172.49 3602.08,-175.5 3611.9,-179.48 3612.24,-172.49"/>
</g>
<!-- [root] module.claves.local.ruta_del_fichero_clave_publica_pem (expand)&#45;&gt;[root] module.claves.local.directorio_ficheros_claves_acabando_en_barra (expand) -->
<g id="edge24" class="edge">
<title>[root] module.claves.local.ruta_del_fichero_clave_publica_pem (expand)&#45;&gt;[root] module.claves.local.directorio_ficheros_claves_acabando_en_barra (expand)</title>
<path fill="none" stroke="black" d="M2777.33,-217.94C2894.23,-206.61 3054.32,-191.09 3174.53,-179.43"/>
<polygon fill="black" stroke="black" points="3174.95,-182.91 3184.57,-178.46 3174.28,-175.94 3174.95,-182.91"/>
</g>
<!-- [root] module.claves.local.existen_ficheros_de_claves (expand) -->
<g id="node24" class="node">
<title>[root] module.claves.local.existen_ficheros_de_claves (expand)</title>
<ellipse fill="none" stroke="black" cx="3725" cy="-378" rx="299.75" ry="18"/>
<text text-anchor="middle" x="3725" y="-374.3" font-family="Times,serif" font-size="14.00">[root] module.claves.local.existen_ficheros_de_claves (expand)</text>
</g>
<!-- [root] module.claves.local.existen_ficheros_de_claves (expand)&#45;&gt;[root] module.claves.local.existe_el_fichero_clave_privada_openssh (expand) -->
<g id="edge16" class="edge">
<title>[root] module.claves.local.existen_ficheros_de_claves (expand)&#45;&gt;[root] module.claves.local.existe_el_fichero_clave_privada_openssh (expand)</title>
<path fill="none" stroke="black" d="M3636.63,-360.76C3578.85,-350.15 3503.26,-336.26 3443.39,-325.26"/>
<polygon fill="black" stroke="black" points="3444.01,-321.82 3433.54,-323.45 3442.74,-328.7 3444.01,-321.82"/>
</g>
<!-- [root] module.claves.local.existen_ficheros_de_claves (expand)&#45;&gt;[root] module.claves.local.existe_el_fichero_clave_privada_pem (expand) -->
<g id="edge17" class="edge">
<title>[root] module.claves.local.existen_ficheros_de_claves (expand)&#45;&gt;[root] module.claves.local.existe_el_fichero_clave_privada_pem (expand)</title>
<path fill="none" stroke="black" d="M3805.65,-360.59C3857.25,-350.09 3924.3,-336.44 3977.83,-325.55"/>
<polygon fill="black" stroke="black" points="3978.56,-328.98 3987.66,-323.55 3977.16,-322.12 3978.56,-328.98"/>
</g>
<!-- [root] module.claves.local.existen_ficheros_de_claves (expand)&#45;&gt;[root] module.claves.local.existe_el_fichero_clave_publica_openssh (expand) -->
<g id="edge18" class="edge">
<title>[root] module.claves.local.existen_ficheros_de_claves (expand)&#45;&gt;[root] module.claves.local.existe_el_fichero_clave_publica_openssh (expand)</title>
<path fill="none" stroke="black" d="M3919.03,-364.28C4103.65,-352.18 4381.1,-334 4573.68,-321.38"/>
<polygon fill="black" stroke="black" points="4574.18,-324.85 4583.93,-320.7 4573.72,-317.86 4574.18,-324.85"/>
</g>
<!-- [root] module.claves.local.existen_ficheros_de_claves (expand)&#45;&gt;[root] module.claves.local.existe_el_fichero_clave_publica_pem (expand) -->
<g id="edge19" class="edge">
<title>[root] module.claves.local.existen_ficheros_de_claves (expand)&#45;&gt;[root] module.claves.local.existe_el_fichero_clave_publica_pem (expand)</title>
<path fill="none" stroke="black" d="M3527.13,-364.47C3333.87,-352.22 3040.35,-333.63 2839.89,-320.93"/>
<polygon fill="black" stroke="black" points="2840.02,-317.43 2829.81,-320.29 2839.57,-324.42 2840.02,-317.43"/>
</g>
<!-- [root] module.claves.var.algoritmo (expand) -->
<g id="node26" class="node">
<title>[root] module.claves.var.algoritmo (expand)</title>
<ellipse fill="none" stroke="black" cx="1749" cy="-162" rx="213.66" ry="18"/>
<text text-anchor="middle" x="1749" y="-158.3" font-family="Times,serif" font-size="14.00">[root] module.claves.var.algoritmo (expand)</text>
</g>
<!-- [root] module.claves.local.nombre_algoritmo (expand)&#45;&gt;[root] module.claves.var.algoritmo (expand) -->
<g id="edge20" class="edge">
<title>[root] module.claves.local.nombre_algoritmo (expand)&#45;&gt;[root] module.claves.var.algoritmo (expand)</title>
<path fill="none" stroke="black" d="M1165.93,-431.97C1273.42,-382.38 1585.94,-238.22 1703.54,-183.97"/>
<polygon fill="black" stroke="black" points="1705.04,-187.13 1712.66,-179.77 1702.11,-180.78 1705.04,-187.13"/>
</g>
<!-- [root] module.claves.var.algoritmo (expand)&#45;&gt;[root] module.claves (expand) -->
<g id="edge35" class="edge">
<title>[root] module.claves.var.algoritmo (expand)&#45;&gt;[root] module.claves (expand)</title>
<path fill="none" stroke="black" d="M1786.38,-144.1C1831.14,-124.42 1908.76,-92.05 1978,-72 2033.8,-55.84 2097.49,-43.1 2149.1,-34.17"/>
<polygon fill="black" stroke="black" points="2149.99,-37.57 2159.25,-32.44 2148.81,-30.67 2149.99,-37.57"/>
</g>
<!-- [root] module.claves.local.se_generan_claves (expand)&#45;&gt;[root] module.claves.local.existen_ficheros_de_claves (expand) -->
<g id="edge25" class="edge">
<title>[root] module.claves.local.se_generan_claves (expand)&#45;&gt;[root] module.claves.local.existen_ficheros_de_claves (expand)</title>
<path fill="none" stroke="black" d="M2530.13,-439.25C2750.77,-428.92 3107.8,-411.93 3416,-396 3444.44,-394.53 3474.35,-392.94 3503.91,-391.34"/>
<polygon fill="black" stroke="black" points="3504.12,-394.84 3513.91,-390.8 3503.74,-387.85 3504.12,-394.84"/>
</g>
<!-- [root] module.claves.var.forzar_regeneracion (expand) -->
<g id="node28" class="node">
<title>[root] module.claves.var.forzar_regeneracion (expand)</title>
<ellipse fill="none" stroke="black" cx="2249" cy="-90" rx="261.85" ry="18"/>
<text text-anchor="middle" x="2249" y="-86.3" font-family="Times,serif" font-size="14.00">[root] module.claves.var.forzar_regeneracion (expand)</text>
</g>
<!-- [root] module.claves.local.se_generan_claves (expand)&#45;&gt;[root] module.claves.var.forzar_regeneracion (expand) -->
<g id="edge26" class="edge">
<title>[root] module.claves.local.se_generan_claves (expand)&#45;&gt;[root] module.claves.var.forzar_regeneracion (expand)</title>
<path fill="none" stroke="black" d="M2304.94,-432C2284.1,-406.66 2249,-356.61 2249,-307 2249,-307 2249,-307 2249,-233 2249,-193 2249,-146.65 2249,-118.08"/>
<polygon fill="black" stroke="black" points="2252.5,-118.05 2249,-108.05 2245.5,-118.05 2252.5,-118.05"/>
</g>
<!-- [root] module.claves.var.forzar_regeneracion (expand)&#45;&gt;[root] module.claves (expand) -->
<g id="edge37" class="edge">
<title>[root] module.claves.var.forzar_regeneracion (expand)&#45;&gt;[root] module.claves (expand)</title>
<path fill="none" stroke="black" d="M2249,-71.7C2249,-63.98 2249,-54.71 2249,-46.11"/>
<polygon fill="black" stroke="black" points="2252.5,-46.1 2249,-36.1 2245.5,-46.1 2252.5,-46.1"/>
</g>
<!-- [root] provider[&quot;registry.terraform.io/hashicorp/aws&quot;] (close) -->
<g id="node30" class="node">
<title>[root] provider[&quot;registry.terraform.io/hashicorp/aws&quot;] (close)</title>
<ellipse fill="none" stroke="black" cx="1273" cy="-666" rx="291.65" ry="18"/>
<text text-anchor="middle" x="1273" y="-662.3" font-family="Times,serif" font-size="14.00">[root] provider[&quot;registry.terraform.io/hashicorp/aws&quot;] (close)</text>
</g>
<!-- [root] provider[&quot;registry.terraform.io/hashicorp/aws&quot;] (close)&#45;&gt;[root] aws_instance.web (expand) -->
<g id="edge38" class="edge">
<title>[root] provider[&quot;registry.terraform.io/hashicorp/aws&quot;] (close)&#45;&gt;[root] aws_instance.web (expand)</title>
<path fill="none" stroke="black" d="M1139.61,-649.94C1017,-636.1 839.06,-616.01 735.77,-604.35"/>
<polygon fill="black" stroke="black" points="736.04,-600.85 725.71,-603.21 735.25,-607.81 736.04,-600.85"/>
</g>
<!-- [root] provider[&quot;registry.terraform.io/hashicorp/tls&quot;] (close) -->
<g id="node31" class="node">
<title>[root] provider[&quot;registry.terraform.io/hashicorp/tls&quot;] (close)</title>
<ellipse fill="none" stroke="black" cx="1905" cy="-594" rx="285.95" ry="18"/>
<text text-anchor="middle" x="1905" y="-590.3" font-family="Times,serif" font-size="14.00">[root] provider[&quot;registry.terraform.io/hashicorp/tls&quot;] (close)</text>
</g>
<!-- [root] provider[&quot;registry.terraform.io/hashicorp/tls&quot;] (close)&#45;&gt;[root] module.claves.tls_private_key.claves (expand) -->
<g id="edge39" class="edge">
<title>[root] provider[&quot;registry.terraform.io/hashicorp/tls&quot;] (close)&#45;&gt;[root] module.claves.tls_private_key.claves (expand)</title>
<path fill="none" stroke="black" d="M1905,-575.7C1905,-567.98 1905,-558.71 1905,-550.11"/>
<polygon fill="black" stroke="black" points="1908.5,-550.1 1905,-540.1 1901.5,-550.1 1908.5,-550.1"/>
</g>
<!-- [root] root -->
<g id="node32" class="node">
<title>[root] root</title>
<ellipse fill="none" stroke="black" cx="1905" cy="-738" rx="58.49" ry="18"/>
<text text-anchor="middle" x="1905" y="-734.3" font-family="Times,serif" font-size="14.00">[root] root</text>
</g>
<!-- [root] root&#45;&gt;[root] module.claves (close) -->
<g id="edge40" class="edge">
<title>[root] root&#45;&gt;[root] module.claves (close)</title>
<path fill="none" stroke="black" d="M1957.84,-729.97C2044.12,-718.49 2216.73,-695.51 2327.91,-680.72"/>
<polygon fill="black" stroke="black" points="2328.68,-684.15 2338.13,-679.36 2327.76,-677.21 2328.68,-684.15"/>
</g>
<!-- [root] root&#45;&gt;[root] provider[&quot;registry.terraform.io/hashicorp/aws&quot;] (close) -->
<g id="edge41" class="edge">
<title>[root] root&#45;&gt;[root] provider[&quot;registry.terraform.io/hashicorp/aws&quot;] (close)</title>
<path fill="none" stroke="black" d="M1850.84,-731C1755.83,-720.48 1556.15,-698.36 1418.33,-683.1"/>
<polygon fill="black" stroke="black" points="1418.43,-679.59 1408.1,-681.96 1417.66,-686.54 1418.43,-679.59"/>
</g>
<!-- [root] root&#45;&gt;[root] provider[&quot;registry.terraform.io/hashicorp/tls&quot;] (close) -->
<g id="edge42" class="edge">
<title>[root] root&#45;&gt;[root] provider[&quot;registry.terraform.io/hashicorp/tls&quot;] (close)</title>
<path fill="none" stroke="black" d="M1905,-719.87C1905,-695.67 1905,-651.21 1905,-622.39"/>
<polygon fill="black" stroke="black" points="1908.5,-622.19 1905,-612.19 1901.5,-622.19 1908.5,-622.19"/>
</g>
</g>
</svg>
