<?xml version="1.0" encoding="UTF-8" standalone="no"?>
<!DOCTYPE svg PUBLIC "-//W3C//DTD SVG 1.1//EN"
 "http://www.w3.org/Graphics/SVG/1.1/DTD/svg11.dtd">
<!-- Generated by graphviz version 2.43.0 (0)
 -->
<!-- Title: G Pages: 1 -->
<svg width="1164pt" height="253pt"
 viewBox="0.00 0.00 1164.00 253.00" xmlns="http://www.w3.org/2000/svg" xmlns:xlink="http://www.w3.org/1999/xlink">
<g id="graph0" class="graph" transform="scale(1 1) rotate(0) translate(4 249)">
<title>G</title>
<polygon fill="white" stroke="transparent" points="-4,4 -4,-249 1160,-249 1160,4 -4,4"/>
<g id="clust1" class="cluster">
<title>cluster_module.mis_claves</title>
<polygon fill="none" stroke="black" points="698,-8 698,-83 879,-83 879,-8 698,-8"/>
<text text-anchor="middle" x="788.5" y="-67.8" font-family="sans-serif" font-size="14.00">module.mis_claves</text>
</g>
<g id="clust2" class="cluster">
<title>cluster_module.prueba_servidor</title>
<polygon fill="none" stroke="black" points="899,-72 899,-147 1148,-147 1148,-72 899,-72"/>
<text text-anchor="middle" x="1023.5" y="-131.8" font-family="sans-serif" font-size="14.00">module.prueba_servidor</text>
</g>
<!-- data.aws_ami.imagen_del_servidor -->
<g id="node1" class="node">
<title>data.aws_ami.imagen_del_servidor</title>
<polygon fill="none" stroke="black" points="657,-208 398,-208 398,-172 657,-172 657,-208"/>
<text text-anchor="middle" x="527.5" y="-186.3" font-family="sans-serif" font-size="14.00">data.aws_ami.imagen_del_servidor</text>
</g>
<!-- data.aws_instance.instancia_existente -->
<g id="node2" class="node">
<title>data.aws_instance.instancia_existente</title>
<polygon fill="none" stroke="black" points="668,-154 387,-154 387,-118 668,-118 668,-154"/>
<text text-anchor="middle" x="527.5" y="-132.3" font-family="sans-serif" font-size="14.00">data.aws_instance.instancia_existente</text>
</g>
<!-- data.aws_instances.saber_si_la_instancia_existe -->
<g id="node3" class="node">
<title>data.aws_instances.saber_si_la_instancia_existe</title>
<polygon fill="none" stroke="black" points="349,-154 0,-154 0,-118 349,-118 349,-154"/>
<text text-anchor="middle" x="174.5" y="-132.3" font-family="sans-serif" font-size="14.00">data.aws_instances.saber_si_la_instancia_existe</text>
</g>
<!-- data.aws_instance.instancia_existente&#45;&gt;data.aws_instances.saber_si_la_instancia_existe -->
<g id="edge1" class="edge">
<title>data.aws_instance.instancia_existente&#45;&gt;data.aws_instances.saber_si_la_instancia_existe</title>
<path fill="none" stroke="black" d="M386.77,-136C377.64,-136 368.38,-136 359.09,-136"/>
<polygon fill="black" stroke="black" points="359,-132.5 349,-136 359,-139.5 359,-132.5"/>
</g>
<!-- aws_instance.web -->
<g id="node4" class="node">
<title>aws_instance.web</title>
<polygon fill="none" stroke="black" points="859.5,-127 717.5,-127 717.5,-91 859.5,-91 859.5,-127"/>
<text text-anchor="middle" x="788.5" y="-105.3" font-family="sans-serif" font-size="14.00">aws_instance.web</text>
</g>
<!-- aws_instance.web&#45;&gt;data.aws_ami.imagen_del_servidor -->
<g id="edge2" class="edge">
<title>aws_instance.web&#45;&gt;data.aws_ami.imagen_del_servidor</title>
<path fill="none" stroke="black" d="M753.93,-127.08C730.89,-138.82 699.29,-153.63 670,-163 662.71,-165.33 655.15,-167.49 647.48,-169.49"/>
<polygon fill="black" stroke="black" points="646.57,-166.11 637.71,-171.93 648.26,-172.9 646.57,-166.11"/>
</g>
<!-- aws_instance.web&#45;&gt;data.aws_instance.instancia_existente -->
<g id="edge3" class="edge">
<title>aws_instance.web&#45;&gt;data.aws_instance.instancia_existente</title>
<path fill="none" stroke="black" d="M717.41,-116.31C704.99,-117.6 691.65,-118.99 678,-120.42"/>
<polygon fill="black" stroke="black" points="677.59,-116.94 668.01,-121.46 678.32,-123.9 677.59,-116.94"/>
</g>
<!-- aws_network_interface.interfaz -->
<g id="node6" class="node">
<title>aws_network_interface.interfaz</title>
<polygon fill="none" stroke="black" points="644,-100 411,-100 411,-64 644,-64 644,-100"/>
<text text-anchor="middle" x="527.5" y="-78.3" font-family="sans-serif" font-size="14.00">aws_network_interface.interfaz</text>
</g>
<!-- aws_instance.web&#45;&gt;aws_network_interface.interfaz -->
<g id="edge4" class="edge">
<title>aws_instance.web&#45;&gt;aws_network_interface.interfaz</title>
<path fill="none" stroke="black" d="M717.41,-101.69C697.79,-99.65 675.85,-97.36 654.06,-95.09"/>
<polygon fill="black" stroke="black" points="654.38,-91.6 644.07,-94.05 653.65,-98.57 654.38,-91.6"/>
</g>
<!-- aws_security_group.reglas_firewall_red -->
<g id="node7" class="node">
<title>aws_security_group.reglas_firewall_red</title>
<polygon fill="none" stroke="black" points="670,-46 385,-46 385,-10 670,-10 670,-46"/>
<text text-anchor="middle" x="527.5" y="-24.3" font-family="sans-serif" font-size="14.00">aws_security_group.reglas_firewall_red</text>
</g>
<!-- aws_instance.web&#45;&gt;aws_security_group.reglas_firewall_red -->
<g id="edge5" class="edge">
<title>aws_instance.web&#45;&gt;aws_security_group.reglas_firewall_red</title>
<path fill="none" stroke="black" d="M717.4,-96.25C710.61,-93.71 704.01,-90.66 698,-87 681.85,-77.18 686.4,-64.39 670,-55 667.07,-53.32 664.06,-51.75 660.97,-50.26"/>
<polygon fill="black" stroke="black" points="662.11,-46.94 651.54,-46.1 659.28,-53.34 662.11,-46.94"/>
</g>
<!-- aws_key_pair.clave_en_aws -->
<g id="node5" class="node">
<title>aws_key_pair.clave_en_aws</title>
<polygon fill="none" stroke="black" points="1126,-52 921,-52 921,-16 1126,-16 1126,-52"/>
<text text-anchor="middle" x="1023.5" y="-30.3" font-family="sans-serif" font-size="14.00">aws_key_pair.clave_en_aws</text>
</g>
<!-- module.mis_claves.tls_private_key.claves -->
<g id="node10" class="node">
<title>module.mis_claves.tls_private_key.claves</title>
<polygon fill="none" stroke="black" points="871,-52 706,-52 706,-16 871,-16 871,-52"/>
<text text-anchor="middle" x="788.5" y="-30.3" font-family="sans-serif" font-size="14.00">tls_private_key.claves</text>
</g>
<!-- aws_key_pair.clave_en_aws&#45;&gt;module.mis_claves.tls_private_key.claves -->
<g id="edge6" class="edge">
<title>aws_key_pair.clave_en_aws&#45;&gt;module.mis_claves.tls_private_key.claves</title>
<path fill="none" stroke="black" d="M920.98,-34C907.82,-34 894.4,-34 881.41,-34"/>
<polygon fill="black" stroke="black" points="881.09,-30.5 871.09,-34 881.09,-37.5 881.09,-30.5"/>
</g>
<!-- aws_subnet.subred -->
<g id="node8" class="node">
<title>aws_subnet.subred</title>
<polygon fill="none" stroke="black" points="1099,-191 948,-191 948,-155 1099,-155 1099,-191"/>
<text text-anchor="middle" x="1023.5" y="-169.3" font-family="sans-serif" font-size="14.00">aws_subnet.subred</text>
</g>
<!-- aws_vpc.red -->
<g id="node9" class="node">
<title>aws_vpc.red</title>
<polygon fill="none" stroke="black" points="1074.5,-245 972.5,-245 972.5,-209 1074.5,-209 1074.5,-245"/>
<text text-anchor="middle" x="1023.5" y="-223.3" font-family="sans-serif" font-size="14.00">aws_vpc.red</text>
</g>
<!-- module.prueba_servidor.null_resource.pruebas_servidor -->
<g id="node11" class="node">
<title>module.prueba_servidor.null_resource.pruebas_servidor</title>
<polygon fill="none" stroke="black" points="1140,-116 907,-116 907,-80 1140,-80 1140,-116"/>
<text text-anchor="middle" x="1023.5" y="-94.3" font-family="sans-serif" font-size="14.00">null_resource.pruebas_servidor</text>
</g>
<!-- module.prueba_servidor.null_resource.pruebas_servidor&#45;&gt;aws_instance.web -->
<g id="edge7" class="edge">
<title>module.prueba_servidor.null_resource.pruebas_servidor&#45;&gt;aws_instance.web</title>
<path fill="none" stroke="black" d="M906.68,-103.47C894.23,-104.06 881.76,-104.64 869.85,-105.21"/>
<polygon fill="black" stroke="black" points="869.37,-101.73 859.55,-105.69 869.7,-108.72 869.37,-101.73"/>
</g>
<!-- module.prueba_servidor.null_resource.pruebas_servidor&#45;&gt;module.mis_claves.tls_private_key.claves -->
<g id="edge8" class="edge">
<title>module.prueba_servidor.null_resource.pruebas_servidor&#45;&gt;module.mis_claves.tls_private_key.claves</title>
<path fill="none" stroke="black" d="M956.67,-79.92C928.13,-72.08 894.56,-62.86 865.02,-54.74"/>
<polygon fill="black" stroke="black" points="865.74,-51.31 855.17,-52.04 863.89,-58.06 865.74,-51.31"/>
</g>
</g>
</svg>
