<?xml version="1.0" encoding="UTF-8" standalone="no"?>
<!DOCTYPE svg PUBLIC "-//W3C//DTD SVG 1.1//EN"
 "http://www.w3.org/Graphics/SVG/1.1/DTD/svg11.dtd">
<!-- Generated by graphviz version 2.43.0 (0)
 -->
<!-- Title: G Pages: 1 -->
<svg width="1141pt" height="281pt"
 viewBox="0.00 0.00 1141.00 281.00" xmlns="http://www.w3.org/2000/svg" xmlns:xlink="http://www.w3.org/1999/xlink">
<g id="graph0" class="graph" transform="scale(1 1) rotate(0) translate(4 277)">
<title>G</title>
<polygon fill="white" stroke="transparent" points="-4,4 -4,-277 1137,-277 1137,4 -4,4"/>
<g id="clust1" class="cluster">
<title>cluster_module.mis_claves</title>
<polygon fill="none" stroke="black" points="84,-89 84,-164 265,-164 265,-89 84,-89"/>
<text text-anchor="middle" x="174.5" y="-148.8" font-family="sans-serif" font-size="14.00">module.mis_claves</text>
</g>
<g id="clust2" class="cluster">
<title>cluster_module.prueba_servidor</title>
<polygon fill="none" stroke="black" points="876,-100 876,-175 1125,-175 1125,-100 876,-100"/>
<text text-anchor="middle" x="1000.5" y="-159.8" font-family="sans-serif" font-size="14.00">module.prueba_servidor</text>
</g>
<!-- data.aws_ami.imagen_del_servidor -->
<g id="node1" class="node">
<title>data.aws_ami.imagen_del_servidor</title>
<polygon fill="none" stroke="black" points="657,-252 398,-252 398,-216 657,-216 657,-252"/>
<text text-anchor="middle" x="527.5" y="-230.3" font-family="sans-serif" font-size="14.00">data.aws_ami.imagen_del_servidor</text>
</g>
<!-- data.aws_instance.instancia_existente -->
<g id="node2" class="node">
<title>data.aws_instance.instancia_existente</title>
<polygon fill="none" stroke="black" points="668,-198 387,-198 387,-162 668,-162 668,-198"/>
<text text-anchor="middle" x="527.5" y="-176.3" font-family="sans-serif" font-size="14.00">data.aws_instance.instancia_existente</text>
</g>
<!-- data.aws_instances.saber_si_la_instancia_existe -->
<g id="node3" class="node">
<title>data.aws_instances.saber_si_la_instancia_existe</title>
<polygon fill="none" stroke="black" points="349,-208 0,-208 0,-172 349,-172 349,-208"/>
<text text-anchor="middle" x="174.5" y="-186.3" font-family="sans-serif" font-size="14.00">data.aws_instances.saber_si_la_instancia_existe</text>
</g>
<!-- data.aws_instance.instancia_existente&#45;&gt;data.aws_instances.saber_si_la_instancia_existe -->
<g id="edge1" class="edge">
<title>data.aws_instance.instancia_existente&#45;&gt;data.aws_instances.saber_si_la_instancia_existe</title>
<path fill="none" stroke="black" d="M386.77,-183.98C377.64,-184.24 368.38,-184.5 359.09,-184.77"/>
<polygon fill="black" stroke="black" points="358.9,-181.27 349,-185.06 359.1,-188.27 358.9,-181.27"/>
</g>
<!-- aws_instance.web -->
<g id="node4" class="node">
<title>aws_instance.web</title>
<polygon fill="none" stroke="black" points="848,-144 706,-144 706,-108 848,-108 848,-144"/>
<text text-anchor="middle" x="777" y="-122.3" font-family="sans-serif" font-size="14.00">aws_instance.web</text>
</g>
<!-- aws_instance.web&#45;&gt;data.aws_ami.imagen_del_servidor -->
<g id="edge2" class="edge">
<title>aws_instance.web&#45;&gt;data.aws_ami.imagen_del_servidor</title>
<path fill="none" stroke="black" d="M757.84,-144.2C738.01,-162.96 704.46,-191.59 670,-207 665.53,-209 660.91,-210.85 656.2,-212.57"/>
<polygon fill="black" stroke="black" points="654.74,-209.37 646.4,-215.9 657,-215.99 654.74,-209.37"/>
</g>
<!-- aws_instance.web&#45;&gt;data.aws_instance.instancia_existente -->
<g id="edge3" class="edge">
<title>aws_instance.web&#45;&gt;data.aws_instance.instancia_existente</title>
<path fill="none" stroke="black" d="M707.72,-144.04C695.21,-147.16 682.23,-150.28 670,-153 659.44,-155.35 648.41,-157.68 637.37,-159.92"/>
<polygon fill="black" stroke="black" points="636.35,-156.56 627.24,-161.96 637.73,-163.42 636.35,-156.56"/>
</g>
<!-- aws_key_pair.clave_en_aws -->
<g id="node5" class="node">
<title>aws_key_pair.clave_en_aws</title>
<polygon fill="none" stroke="black" points="630,-144 425,-144 425,-108 630,-108 630,-144"/>
<text text-anchor="middle" x="527.5" y="-122.3" font-family="sans-serif" font-size="14.00">aws_key_pair.clave_en_aws</text>
</g>
<!-- aws_instance.web&#45;&gt;aws_key_pair.clave_en_aws -->
<g id="edge4" class="edge">
<title>aws_instance.web&#45;&gt;aws_key_pair.clave_en_aws</title>
<path fill="none" stroke="black" d="M705.74,-126C685.41,-126 662.7,-126 640.5,-126"/>
<polygon fill="black" stroke="black" points="640.35,-122.5 630.35,-126 640.35,-129.5 640.35,-122.5"/>
</g>
<!-- aws_network_interface.interfaz -->
<g id="node6" class="node">
<title>aws_network_interface.interfaz</title>
<polygon fill="none" stroke="black" points="644,-90 411,-90 411,-54 644,-54 644,-90"/>
<text text-anchor="middle" x="527.5" y="-68.3" font-family="sans-serif" font-size="14.00">aws_network_interface.interfaz</text>
</g>
<!-- aws_instance.web&#45;&gt;aws_network_interface.interfaz -->
<g id="edge5" class="edge">
<title>aws_instance.web&#45;&gt;aws_network_interface.interfaz</title>
<path fill="none" stroke="black" d="M707.72,-107.96C695.21,-104.84 682.23,-101.72 670,-99 659.44,-96.65 648.41,-94.32 637.37,-92.08"/>
<polygon fill="black" stroke="black" points="637.73,-88.58 627.24,-90.04 636.35,-95.44 637.73,-88.58"/>
</g>
<!-- aws_security_group.reglas_firewall_red -->
<g id="node7" class="node">
<title>aws_security_group.reglas_firewall_red</title>
<polygon fill="none" stroke="black" points="670,-36 385,-36 385,0 670,0 670,-36"/>
<text text-anchor="middle" x="527.5" y="-14.3" font-family="sans-serif" font-size="14.00">aws_security_group.reglas_firewall_red</text>
</g>
<!-- aws_instance.web&#45;&gt;aws_security_group.reglas_firewall_red -->
<g id="edge6" class="edge">
<title>aws_instance.web&#45;&gt;aws_security_group.reglas_firewall_red</title>
<path fill="none" stroke="black" d="M757.84,-107.8C738.01,-89.04 704.46,-60.41 670,-45 665.53,-43 660.91,-41.15 656.2,-39.43"/>
<polygon fill="black" stroke="black" points="657,-36.01 646.4,-36.1 654.74,-42.63 657,-36.01"/>
</g>
<!-- module.mis_claves.tls_private_key.claves -->
<g id="node10" class="node">
<title>module.mis_claves.tls_private_key.claves</title>
<polygon fill="none" stroke="black" points="257,-133 92,-133 92,-97 257,-97 257,-133"/>
<text text-anchor="middle" x="174.5" y="-111.3" font-family="sans-serif" font-size="14.00">tls_private_key.claves</text>
</g>
<!-- aws_key_pair.clave_en_aws&#45;&gt;module.mis_claves.tls_private_key.claves -->
<g id="edge7" class="edge">
<title>aws_key_pair.clave_en_aws&#45;&gt;module.mis_claves.tls_private_key.claves</title>
<path fill="none" stroke="black" d="M424.98,-122.82C375.17,-121.26 315.63,-119.39 267.21,-117.87"/>
<polygon fill="black" stroke="black" points="267.16,-114.37 257.06,-117.56 266.94,-121.37 267.16,-114.37"/>
</g>
<!-- aws_subnet.subred -->
<g id="node8" class="node">
<title>aws_subnet.subred</title>
<polygon fill="none" stroke="black" points="1076,-219 925,-219 925,-183 1076,-183 1076,-219"/>
<text text-anchor="middle" x="1000.5" y="-197.3" font-family="sans-serif" font-size="14.00">aws_subnet.subred</text>
</g>
<!-- aws_vpc.red -->
<g id="node9" class="node">
<title>aws_vpc.red</title>
<polygon fill="none" stroke="black" points="1051.5,-273 949.5,-273 949.5,-237 1051.5,-237 1051.5,-273"/>
<text text-anchor="middle" x="1000.5" y="-251.3" font-family="sans-serif" font-size="14.00">aws_vpc.red</text>
</g>
<!-- module.prueba_servidor.null_resource.pruebas_servidor -->
<g id="node11" class="node">
<title>module.prueba_servidor.null_resource.pruebas_servidor</title>
<polygon fill="none" stroke="black" points="1117,-144 884,-144 884,-108 1117,-108 1117,-144"/>
<text text-anchor="middle" x="1000.5" y="-122.3" font-family="sans-serif" font-size="14.00">null_resource.pruebas_servidor</text>
</g>
<!-- module.prueba_servidor.null_resource.pruebas_servidor&#45;&gt;aws_instance.web -->
<g id="edge8" class="edge">
<title>module.prueba_servidor.null_resource.pruebas_servidor&#45;&gt;aws_instance.web</title>
<path fill="none" stroke="black" d="M883.88,-126C875.23,-126 866.62,-126 858.26,-126"/>
<polygon fill="black" stroke="black" points="858.21,-122.5 848.21,-126 858.21,-129.5 858.21,-122.5"/>
</g>
</g>
</svg>
